#!OML:ASF F:\VICON\USERDATA\INSTALL\rory3\rory3.ASF
:FULLY-SPECIFIED
:DEGREES
139
root 1.05375 21.4784 -16.3082 6.99413 -0.0291622 -0.319665
lowerback 9.95895 0.16577 0.407923
upperback 0.442579 0.360206 1.75407
thorax -5.13659 0.188201 1.54914
lowerneck -23.113 -4.93171 -9.4591
upperneck 11.1629 -4.99563 7.57095
head 7.61044 -2.06705 3.39606
rclavicle -2.98177e-015 4.77083e-015
rhumerus -35.5447 -4.90674 -77.5701
rradius 33.126
rwrist 7.39348
rhand -15.9473 14.1226
rfingers 7.12502
rthumb 10.251 -15.6076
lclavicle -2.98177e-015 4.77083e-015
lhumerus -29.4644 -0.537892 83.9632
lradius 31.4356
lwrist -3.97419
lhand -11.0218 25.0263
lfingers 7.12502
lthumb 14.9995 54.4631
rfemur -15.0581 -2.1561 20.3078
rtibia 22.0433
rfoot 22.236 -20.3098
rtoes 22.849
lfemur -17.4371 0.576457 -18.1967
ltibia 22.3188
lfoot 24.6307 -1.65281
ltoes -0.462348
140
root 1.05221 21.6288 -16.3325 6.73512 -0.0084088 -0.150165
lowerback 10.3952 0.164839 0.164045
upperback 0.348488 0.338452 1.75874
thorax -5.48115 0.184825 1.69617
lowerneck -22.8592 -4.83632 -9.39969
upperneck 11.2423 -4.88833 7.42853
head 7.58071 -2.03278 3.35517
rclavicle -2.98177e-016 5.96354e-015
rhumerus -35.5513 -4.23204 -77.6391
rradius 33.2605
rwrist 7.30139
rhand -16.0046 13.2047
rfingers 7.12502
rthumb 10.1957 -16.5282
lclavicle -2.98177e-016 5.96354e-015
lhumerus -29.5631 -0.598893 83.8674
lradius 31.5662
lwrist -3.93331
lhand -10.9389 23.6243
lfingers 7.12502
lthumb 15.0794 53.0551
rfemur -15.1456 -2.58954 20.1711
rtibia 23.1416
rfoot 22.3309 -19.0116
rtoes 22.3415
lfemur -17.3617 1.09673 -18.5195
ltibia 23.1316
lfoot 23.9152 -2.17859
ltoes -0.862068
141
root 1.04798 21.7671 -16.3534 6.40355 -0.0785935 -0.0627
lowerback 10.634 0.144103 -0.0703771
upperback 0.410738 0.287805 1.81995
thorax -5.54991 0.166758 1.90083
lowerneck -22.6107 -4.77539 -9.46432
upperneck 11.142 -4.80839 7.44764
head 7.50251 -2.00068 3.38416
rclavicle 2.78299e-015 5.56597e-015
rhumerus -35.3507 -3.61035 -77.6535
rradius 33.5293
rwrist 7.87757
rhand -15.559 12.4859
rfingers 7.12502
rthumb 10.6256 -17.2254
lclavicle 2.78299e-015 5.56597e-015
lhumerus -29.6986 -0.48419 83.7439
lradius 32.0243
lwrist -4.09626
lhand -10.5572 24.1748
lfingers 7.12502
lthumb 15.4471 53.5776
rfemur -15.152 -2.89909 20.0995
rtibia 24.2163
rfoot 22.5964 -17.0607
rtoes 20.4877
lfemur -17.1323 1.78326 -18.7633
ltibia 23.9978
lfoot 23.3657 -2.73057
ltoes -1.42907
142
root 1.04328 21.8947 -16.3725 6.06425 -0.219956 0.0146759
lowerback 10.764 0.171379 -0.21646
upperback 0.54924 0.302962 1.78082
thorax -5.47814 0.17633 1.93971
lowerneck -22.1688 -4.96478 -9.18446
upperneck 10.5378 -5.12981 7.25758
head 7.24605 -2.16742 3.2318
rclavicle 3.97569e-016 -1.43125e-014
rhumerus -35.1926 -3.02075 -77.8823
rradius 33.9424
rwrist 7.53548
rhand -15.1163 12.9691
rfingers 7.12502
rthumb 11.0525 -16.7199
lclavicle 3.97569e-016 -1.43125e-014
lhumerus -29.7522 -0.753439 83.5483
lradius 32.6501
lwrist -4.15152
lhand -10.4693 25.5141
lfingers 7.12502
lthumb 15.5316 54.9103
rfemur -15.0642 -3.04747 20.0065
rtibia 25.2086
rfoot 22.6063 -15.4869
rtoes 18.9478
lfemur -16.9108 2.34809 -18.9561
ltibia 24.9238
lfoot 23.2355 -3.11477
ltoes -0.0149248
143
root 1.04227 22.0147 -16.3904 5.82908 -0.239667 0.186244
lowerback 10.9585 0.171079 -0.421065
upperback 0.56818 0.276541 1.7491
thorax -5.5671 0.168511 2.02678
lowerneck -22.4359 -4.52314 -9.66135
upperneck 11.594 -4.47588 7.6216
head 7.60489 -1.83975 3.52484
rclavicle -2.5842e-015 -1.19271e-015
rhumerus -35.0975 -2.48249 -78.062
rradius 34.0262
rwrist 6.34301
rhand -15.2742 14.0714
rfingers 7.12502
rthumb 10.9002 -15.6257
lclavicle -2.5842e-015 -1.19271e-015
lhumerus -29.8153 -0.976645 83.3663
lradius 32.987
lwrist -4.11064
lhand -11.0824 25.3897
lfingers 7.12502
lthumb 14.9411 54.8307
rfemur -15.0091 -3.21278 19.7803
rtibia 26.1098
rfoot 22.3224 -14.6073
rtoes 18.6061
lfemur -16.9147 2.59224 -19.2014
ltibia 25.9117
lfoot 22.9762 -3.37673
ltoes 1.29746
144
root 1.04152 22.121 -16.406 5.69261 -0.168973 0.253431
lowerback 11.0402 0.164953 -0.562708
upperback 0.574456 0.253724 1.79432
thorax -5.60634 0.161729 2.15828
lowerneck -21.9234 -4.86836 -9.28728
upperneck 10.9167 -4.99323 7.1594
head 7.31979 -2.12189 3.23708
rclavicle -6.65929e-015 -2.26615e-014
rhumerus -34.7847 -2.33017 -77.9984
rradius 33.7736
rwrist 6.08759
rhand -15.9946 14.7584
rfingers 7.12502
rthumb 10.2053 -14.974
lclavicle -6.65929e-015 -2.26615e-014
lhumerus -29.7736 -0.948814 83.1965
lradius 33.0495
lwrist -4.21591
lhand -11.7735 24.6268
lfingers 7.12502
lthumb 14.2752 54.1161
rfemur -15.0138 -3.23316 19.6616
rtibia 26.9011
rfoot 22.1683 -13.342
rtoes 17.0085
lfemur -17.024 2.78341 -19.3204
ltibia 26.8655
lfoot 22.2432 -3.98394
ltoes 0.470909
